<mxfile host="app.diagrams.net" modified="2022-03-04T12:43:55.373Z" agent="5.0 (Windows NT 10.0; Win64; x64) AppleWebKit/537.36 (KHTML, like Gecko) Chrome/98.0.4758.102 Safari/537.36" etag="3u3aPGrEGyRwG7PN_QvK" version="16.6.4" type="github">
  <diagram id="agCWinGzGlSTTqaEI_U_" name="Page-1">
    <mxGraphModel dx="731" dy="402" grid="1" gridSize="10" guides="1" tooltips="1" connect="1" arrows="1" fold="1" page="1" pageScale="1" pageWidth="827" pageHeight="1169" math="0" shadow="0">
      <root>
        <mxCell id="0" />
        <mxCell id="1" parent="0" />
        <mxCell id="YBJRUDyE-c3mZsby5Jbl-3" value="" style="html=1;verticalAlign=bottom;startArrow=circle;startFill=1;endArrow=open;startSize=6;endSize=8;rounded=0;" parent="1" edge="1" target="5nbQyXA_cgi32hvIVuK6-17">
          <mxGeometry x="-0.75" y="-30" width="80" relative="1" as="geometry">
            <mxPoint x="70" y="213" as="sourcePoint" />
            <mxPoint x="140" y="210.5" as="targetPoint" />
            <mxPoint as="offset" />
          </mxGeometry>
        </mxCell>
        <mxCell id="5nbQyXA_cgi32hvIVuK6-18" value="logged out" style="edgeLabel;html=1;align=center;verticalAlign=middle;resizable=0;points=[];" vertex="1" connectable="0" parent="YBJRUDyE-c3mZsby5Jbl-3">
          <mxGeometry x="-0.7913" y="-4" relative="1" as="geometry">
            <mxPoint x="-3" y="11" as="offset" />
          </mxGeometry>
        </mxCell>
        <mxCell id="YBJRUDyE-c3mZsby5Jbl-8" value="Login" style="html=1;dashed=0;whitespace=wrap;shape=mxgraph.dfd.start;shadow=0;glass=0;labelBackgroundColor=#FFFF99;sketch=0;strokeWidth=1;fillColor=#FFFF99;" parent="1" vertex="1">
          <mxGeometry x="280" y="200" width="80" height="30" as="geometry" />
        </mxCell>
        <mxCell id="5nbQyXA_cgi32hvIVuK6-3" value="Service Purchase" style="html=1;dashed=0;whitespace=wrap;shape=mxgraph.dfd.start;fillColor=#ffff88;strokeColor=#36393d;" vertex="1" parent="1">
          <mxGeometry x="570" y="30" width="100" height="30" as="geometry" />
        </mxCell>
        <mxCell id="5nbQyXA_cgi32hvIVuK6-6" value="Support Request" style="html=1;dashed=0;whitespace=wrap;shape=mxgraph.dfd.start;fillColor=#ffff88;strokeColor=#36393d;" vertex="1" parent="1">
          <mxGeometry x="150" y="490" width="100" height="30" as="geometry" />
        </mxCell>
        <mxCell id="5nbQyXA_cgi32hvIVuK6-7" value="user&amp;nbsp;" style="html=1;verticalAlign=bottom;startArrow=circle;startFill=1;endArrow=open;startSize=6;endSize=8;rounded=0;" edge="1" parent="1">
          <mxGeometry x="-0.75" y="-30" width="80" relative="1" as="geometry">
            <mxPoint x="70" y="504.5" as="sourcePoint" />
            <mxPoint x="150" y="504.5" as="targetPoint" />
            <mxPoint as="offset" />
          </mxGeometry>
        </mxCell>
        <mxCell id="5nbQyXA_cgi32hvIVuK6-25" value="" style="edgeStyle=orthogonalEdgeStyle;rounded=0;orthogonalLoop=1;jettySize=auto;html=1;endArrow=openThin;endFill=0;entryX=0;entryY=0.5;entryDx=0;entryDy=0;entryPerimeter=0;" edge="1" parent="1" source="5nbQyXA_cgi32hvIVuK6-16" target="5nbQyXA_cgi32hvIVuK6-26">
          <mxGeometry relative="1" as="geometry">
            <mxPoint x="310" y="145" as="targetPoint" />
            <Array as="points">
              <mxPoint x="270" y="145" />
              <mxPoint x="270" y="145" />
            </Array>
          </mxGeometry>
        </mxCell>
        <mxCell id="5nbQyXA_cgi32hvIVuK6-16" value="sign up" style="html=1;dashed=0;whitespace=wrap;shape=mxgraph.dfd.start;shadow=0;glass=0;labelBackgroundColor=#FFFF99;sketch=0;strokeWidth=1;fillColor=#FFFF99;" vertex="1" parent="1">
          <mxGeometry x="150" y="130" width="80" height="30" as="geometry" />
        </mxCell>
        <mxCell id="5nbQyXA_cgi32hvIVuK6-20" value="" style="edgeStyle=orthogonalEdgeStyle;rounded=0;orthogonalLoop=1;jettySize=auto;html=1;endArrow=openThin;endFill=0;" edge="1" parent="1" source="5nbQyXA_cgi32hvIVuK6-17" target="5nbQyXA_cgi32hvIVuK6-16">
          <mxGeometry relative="1" as="geometry" />
        </mxCell>
        <mxCell id="5nbQyXA_cgi32hvIVuK6-21" value="" style="edgeStyle=orthogonalEdgeStyle;rounded=0;orthogonalLoop=1;jettySize=auto;html=1;endArrow=openThin;endFill=0;entryX=0.5;entryY=0.5;entryDx=0;entryDy=-15;entryPerimeter=0;" edge="1" parent="1" source="5nbQyXA_cgi32hvIVuK6-17" target="5nbQyXA_cgi32hvIVuK6-30">
          <mxGeometry relative="1" as="geometry">
            <mxPoint x="210" y="300" as="targetPoint" />
            <Array as="points">
              <mxPoint x="190" y="270" />
              <mxPoint x="190" y="270" />
            </Array>
          </mxGeometry>
        </mxCell>
        <mxCell id="5nbQyXA_cgi32hvIVuK6-17" value="" style="strokeWidth=1;html=1;shape=mxgraph.flowchart.decision;whiteSpace=wrap;fillColor=#cdeb8b;strokeColor=#36393d;" vertex="1" parent="1">
          <mxGeometry x="180" y="200" width="20" height="25" as="geometry" />
        </mxCell>
        <mxCell id="5nbQyXA_cgi32hvIVuK6-19" value="has account?" style="text;html=1;align=center;verticalAlign=middle;resizable=0;points=[];autosize=1;strokeColor=none;fillColor=none;" vertex="1" parent="1">
          <mxGeometry x="80" y="190" width="90" height="20" as="geometry" />
        </mxCell>
        <mxCell id="5nbQyXA_cgi32hvIVuK6-22" value="no" style="text;html=1;align=center;verticalAlign=middle;resizable=0;points=[];autosize=1;strokeColor=none;fillColor=none;" vertex="1" parent="1">
          <mxGeometry x="185" y="170" width="30" height="20" as="geometry" />
        </mxCell>
        <mxCell id="5nbQyXA_cgi32hvIVuK6-23" value="yes" style="text;html=1;align=center;verticalAlign=middle;resizable=0;points=[];autosize=1;strokeColor=none;fillColor=none;" vertex="1" parent="1">
          <mxGeometry x="188" y="237" width="30" height="20" as="geometry" />
        </mxCell>
        <mxCell id="5nbQyXA_cgi32hvIVuK6-28" style="edgeStyle=orthogonalEdgeStyle;rounded=0;orthogonalLoop=1;jettySize=auto;html=1;endArrow=openThin;endFill=0;entryX=0.5;entryY=0.5;entryDx=0;entryDy=-15;entryPerimeter=0;" edge="1" parent="1" source="5nbQyXA_cgi32hvIVuK6-26" target="5nbQyXA_cgi32hvIVuK6-16">
          <mxGeometry relative="1" as="geometry">
            <mxPoint x="200" y="40" as="targetPoint" />
            <Array as="points">
              <mxPoint x="320" y="80" />
              <mxPoint x="190" y="80" />
            </Array>
          </mxGeometry>
        </mxCell>
        <mxCell id="5nbQyXA_cgi32hvIVuK6-35" style="edgeStyle=orthogonalEdgeStyle;rounded=0;orthogonalLoop=1;jettySize=auto;html=1;exitX=0.5;exitY=1;exitDx=0;exitDy=0;exitPerimeter=0;entryX=0.5;entryY=0.5;entryDx=0;entryDy=-15;entryPerimeter=0;endArrow=openThin;endFill=0;" edge="1" parent="1" source="5nbQyXA_cgi32hvIVuK6-26" target="YBJRUDyE-c3mZsby5Jbl-8">
          <mxGeometry relative="1" as="geometry" />
        </mxCell>
        <mxCell id="5nbQyXA_cgi32hvIVuK6-26" value="" style="strokeWidth=1;html=1;shape=mxgraph.flowchart.decision;whiteSpace=wrap;fillColor=#cdeb8b;strokeColor=#36393d;" vertex="1" parent="1">
          <mxGeometry x="310" y="132.5" width="20" height="25" as="geometry" />
        </mxCell>
        <mxCell id="5nbQyXA_cgi32hvIVuK6-27" value="valid info?" style="text;html=1;align=center;verticalAlign=middle;resizable=0;points=[];autosize=1;strokeColor=none;fillColor=none;" vertex="1" parent="1">
          <mxGeometry x="235" y="130" width="70" height="20" as="geometry" />
        </mxCell>
        <mxCell id="5nbQyXA_cgi32hvIVuK6-29" value="no" style="text;html=1;align=center;verticalAlign=middle;resizable=0;points=[];autosize=1;strokeColor=none;fillColor=none;" vertex="1" parent="1">
          <mxGeometry x="295" y="90" width="30" height="20" as="geometry" />
        </mxCell>
        <mxCell id="5nbQyXA_cgi32hvIVuK6-33" style="edgeStyle=orthogonalEdgeStyle;rounded=0;orthogonalLoop=1;jettySize=auto;html=1;exitX=1;exitY=0.5;exitDx=0;exitDy=0;exitPerimeter=0;entryX=0;entryY=0.5;entryDx=0;entryDy=0;entryPerimeter=0;endArrow=openThin;endFill=0;" edge="1" parent="1" source="5nbQyXA_cgi32hvIVuK6-30" target="5nbQyXA_cgi32hvIVuK6-31">
          <mxGeometry relative="1" as="geometry" />
        </mxCell>
        <mxCell id="5nbQyXA_cgi32hvIVuK6-30" value="Sign in" style="html=1;dashed=0;whitespace=wrap;shape=mxgraph.dfd.start;shadow=0;glass=0;labelBackgroundColor=#FFFF99;sketch=0;strokeWidth=1;fillColor=#FFFF99;" vertex="1" parent="1">
          <mxGeometry x="150" y="280" width="80" height="30" as="geometry" />
        </mxCell>
        <mxCell id="5nbQyXA_cgi32hvIVuK6-34" style="edgeStyle=orthogonalEdgeStyle;rounded=0;orthogonalLoop=1;jettySize=auto;html=1;exitX=0.5;exitY=0;exitDx=0;exitDy=0;exitPerimeter=0;entryX=0.5;entryY=0.5;entryDx=0;entryDy=15;entryPerimeter=0;endArrow=openThin;endFill=0;" edge="1" parent="1" source="5nbQyXA_cgi32hvIVuK6-31" target="YBJRUDyE-c3mZsby5Jbl-8">
          <mxGeometry relative="1" as="geometry" />
        </mxCell>
        <mxCell id="5nbQyXA_cgi32hvIVuK6-40" style="edgeStyle=orthogonalEdgeStyle;rounded=0;orthogonalLoop=1;jettySize=auto;html=1;exitX=0.5;exitY=1;exitDx=0;exitDy=0;exitPerimeter=0;endArrow=openThin;endFill=0;entryX=0.5;entryY=0.5;entryDx=0;entryDy=15;entryPerimeter=0;" edge="1" parent="1" source="5nbQyXA_cgi32hvIVuK6-31" target="5nbQyXA_cgi32hvIVuK6-30">
          <mxGeometry relative="1" as="geometry">
            <mxPoint x="190" y="410" as="targetPoint" />
            <Array as="points">
              <mxPoint x="320" y="360" />
              <mxPoint x="190" y="360" />
            </Array>
          </mxGeometry>
        </mxCell>
        <mxCell id="5nbQyXA_cgi32hvIVuK6-41" style="edgeStyle=orthogonalEdgeStyle;rounded=0;orthogonalLoop=1;jettySize=auto;html=1;exitX=1;exitY=0.5;exitDx=0;exitDy=0;exitPerimeter=0;endArrow=openThin;endFill=0;" edge="1" parent="1" source="5nbQyXA_cgi32hvIVuK6-31" target="5nbQyXA_cgi32hvIVuK6-42">
          <mxGeometry relative="1" as="geometry">
            <mxPoint x="400" y="295" as="targetPoint" />
          </mxGeometry>
        </mxCell>
        <mxCell id="5nbQyXA_cgi32hvIVuK6-31" value="" style="strokeWidth=1;html=1;shape=mxgraph.flowchart.decision;whiteSpace=wrap;fillColor=#cdeb8b;strokeColor=#36393d;" vertex="1" parent="1">
          <mxGeometry x="310" y="282.5" width="20" height="25" as="geometry" />
        </mxCell>
        <mxCell id="5nbQyXA_cgi32hvIVuK6-32" value="valid info?" style="text;html=1;align=center;verticalAlign=middle;resizable=0;points=[];autosize=1;strokeColor=none;fillColor=none;" vertex="1" parent="1">
          <mxGeometry x="225" y="270" width="70" height="20" as="geometry" />
        </mxCell>
        <mxCell id="5nbQyXA_cgi32hvIVuK6-36" value="yes" style="text;html=1;align=center;verticalAlign=middle;resizable=0;points=[];autosize=1;strokeColor=none;fillColor=none;" vertex="1" parent="1">
          <mxGeometry x="290" y="250" width="30" height="20" as="geometry" />
        </mxCell>
        <mxCell id="5nbQyXA_cgi32hvIVuK6-39" value="yes" style="text;html=1;align=center;verticalAlign=middle;resizable=0;points=[];autosize=1;strokeColor=none;fillColor=none;" vertex="1" parent="1">
          <mxGeometry x="290" y="160" width="30" height="20" as="geometry" />
        </mxCell>
        <mxCell id="5nbQyXA_cgi32hvIVuK6-42" value="" style="verticalLabelPosition=bottom;verticalAlign=middle;html=1;shape=mxgraph.flowchart.or;fillColor=#cdeb8b;strokeColor=#36393d;strokeWidth=1;" vertex="1" parent="1">
          <mxGeometry x="430" y="280" width="30" height="30" as="geometry" />
        </mxCell>
        <mxCell id="5nbQyXA_cgi32hvIVuK6-43" value="3 attempts?" style="text;html=1;align=center;verticalAlign=middle;resizable=0;points=[];autosize=1;strokeColor=none;fillColor=none;" vertex="1" parent="1">
          <mxGeometry x="334" y="270" width="80" height="20" as="geometry" />
        </mxCell>
        <mxCell id="5nbQyXA_cgi32hvIVuK6-44" value="blocked" style="text;html=1;align=center;verticalAlign=middle;resizable=0;points=[];autosize=1;strokeColor=none;fillColor=none;" vertex="1" parent="1">
          <mxGeometry x="460" y="282.5" width="60" height="20" as="geometry" />
        </mxCell>
        <mxCell id="5nbQyXA_cgi32hvIVuK6-45" value="no + attempts &amp;lt; 3" style="text;html=1;align=center;verticalAlign=middle;resizable=0;points=[];autosize=1;strokeColor=none;fillColor=none;" vertex="1" parent="1">
          <mxGeometry x="198" y="360" width="110" height="20" as="geometry" />
        </mxCell>
      </root>
    </mxGraphModel>
  </diagram>
</mxfile>
